PathFileType	4	(X/Y/Z)	C:\Users\WrightLab\Desktop\Jo\P4V17.trc
DataRate	CameraRate	NumFrames	NumMarkers	Units	OrigDataRate	OrigDataStartFrame	OrigNumFrames
100.00	100.00	       37	19	mm	100.00	1	       744
Frame#	Time	Headset_Front			Headset_Back			Headset_Left			Headset_Right			Left_Shoulder			Right_Shoulder			Sternum			C7			Left Elbow			Right Elbow			Left Wrist			Right Wrist			Left ASIS			Right ASIS			S2			Left Knee			Right Knee			Left Ankle			Right Ankle			
		X1	Y1	Z1	X2	Y2	Z2	X3	Y3	Z3	X4	Y4	Z4	X5	Y5	Z5	X6	Y6	Z6	X7	Y7	Z7	X8	Y8	Z8	X9	Y9	Z9	X10	Y10	Z10	X11	Y11	Z11	X12	Y12	Z12	X13	Y13	Z13	X14	Y14	Z14	X15	Y15	Z15	X16	Y16	Z16	X17	Y17	Z17	X18	Y18	Z18	X19	Y19	Z19	

1	0.000																									228.65622	1139.61584	-1600.77527				189.74649	872.33838	-1440.83032				108.67802	1001.77838	-1513.30090							100.38406	509.66794	-1561.30347										
2	0.010																									228.67056	1139.63123	-1600.71680				189.77141	872.40070	-1440.78748				108.68281	1001.79156	-1513.25342							101.18209	508.79184	-1563.33118										
3	0.020																									228.69278	1139.64905	-1600.65417				189.81828	872.42212	-1440.64734				108.69610	1001.80566	-1513.12134							100.41879	509.77145	-1560.95923										
4	0.030																									228.71182	1139.66907	-1600.57849				190.05064	872.69568	-1441.00171				108.69257	1001.80811	-1513.15637							101.18431	508.77209	-1563.30676										
5	0.040																									228.73228	1139.68994	-1600.50037				190.06758	872.78552	-1440.96960				108.68939	1001.80103	-1513.18799							101.19394	508.77225	-1563.20862										
6	0.050																									228.75560	1139.71631	-1600.39880				190.10147	872.81732	-1440.89209				108.68263	1001.79626	-1513.25525							101.20295	508.83472	-1563.12244										
7	0.060																									228.76997	1139.72607	-1600.36670				190.11015	872.85461	-1440.85962				108.69247	1001.80957	-1513.15735							101.20261	508.84439	-1563.12683										
8	0.070																									228.80087	1139.74866	-1600.29028				190.12828	872.87531	-1440.77466				108.71210	1001.83453	-1512.96228							101.21727	508.84216	-1562.97705										
9	0.080																									228.83371	1139.78455	-1600.15308				190.16055	872.92596	-1440.75549				108.71767	1001.82721	-1512.90674							101.23540	508.89539	-1562.79712										
10	0.090																									228.85931	1139.80420	-1600.08569				190.19046	872.96533	-1440.71216				108.71745	1001.86334	-1512.90906							101.23394	508.86240	-1562.80896										
11	0.100																									228.88666	1139.81921	-1600.04126				190.18576	872.98096	-1440.70898				108.70723	1001.82794	-1513.01062							101.21725	508.85287	-1562.97827										
12	0.110																									228.91158	1139.83862	-1599.97375				190.23068	872.98334	-1440.67444				108.70324	1001.83936	-1513.05042							101.23175	508.84506	-1562.82971										
13	0.120																									228.94777	1139.86426	-1599.88806				190.25352	873.01746	-1440.67114				108.71536	1001.83838	-1512.92981							101.24789	508.92523	-1562.67249										
14	0.130																									228.97186	1139.88831	-1599.79822				190.26811	873.02527	-1440.61365				108.73219	1001.87524	-1512.76245							101.25995	508.96692	-1562.55334										
15	0.140																									228.98061	1139.89417	-1599.77917				190.28448	873.07440	-1440.69104				108.72673	1001.85107	-1512.81665							101.24579	508.90912	-1562.69238										
16	0.150																									229.00040	1139.90417	-1599.75085				190.30508	873.05157	-1440.69922				108.72781	1001.89050	-1512.80615							101.23708	508.86288	-1562.77698										
17	0.160																									229.02904	1139.93066	-1599.65405				190.31659	873.04865	-1440.65662				108.72334	1001.85028	-1512.85034							101.27392	508.99600	-1562.41357										
18	0.170																									229.03151	1139.95178	-1599.55774				190.32565	873.07098	-1440.68506				108.70203	1001.82910	-1513.06238							101.25481	508.91830	-1562.60132										
19	0.180																									229.05228	1139.96460	-1599.51709				190.31670	873.06500	-1440.72888				108.72931	1001.86536	-1512.79102							101.25597	508.89774	-1562.58752										
20	0.190																									229.07497	1139.97595	-1599.48547				190.35060	873.04907	-1440.67505				108.72587	1001.86615	-1512.82544							101.25919	508.94043	-1562.55872										
21	0.200																									229.08171	1139.99658	-1599.39539				190.33830	873.09619	-1440.73853				108.73762	1001.92285	-1512.70874							101.25653	508.94437	-1562.58618										
22	0.210																									229.21780	1140.61926	-1600.46130				190.34471	873.07745	-1440.68689				108.73875	1001.90570	-1512.69739							101.27844	509.00134	-1562.36792										
23	0.220																									229.22536	1140.62390	-1600.44702				190.37923	873.08978	-1440.66602				108.72551	1001.84229	-1512.82874							101.27150	509.03793	-1562.44214										
24	0.230																									229.24544	1140.63611	-1600.40857				190.36238	873.11835	-1440.68677				108.74038	1001.90686	-1512.68115							101.28320	509.02994	-1562.32214										
25	0.240																									229.12320	1140.04492	-1599.20837				190.37183	873.18207	-1440.73657				108.72895	1001.87134	-1512.79468							101.27256	509.03564	-1562.43115										
26	0.250																									229.24904	1140.66614	-1600.27185				190.38152	873.20807	-1440.67261				108.74575	1001.90308	-1512.62769							101.27679	509.03702	-1562.38806										
27	0.260																									229.26869	1140.67810	-1600.23389				190.39995	873.23486	-1440.61462				108.71322	1001.87878	-1512.95129							101.27834	509.02148	-1562.37085										
28	0.270																									229.28476	1140.68347	-1600.22388				190.38712	873.29688	-1440.63013				108.72285	1001.88855	-1512.85559							101.28352	509.04126	-1562.31982										
29	0.280																									229.29295	1140.69617	-1600.17273				190.40088	873.26575	-1440.48792				108.72889	1001.87292	-1512.79529							101.27222	509.04153	-1562.43518										
30	0.290																									229.31740	1140.71045	-1600.12878				190.37952	873.37634	-1440.47839				108.74921	1001.90240	-1512.59326							101.24836	508.92346	-1562.66760										
31	0.300																									229.33221	1140.72400	-1600.07922				190.29442	873.76477	-1441.00537				108.70989	1001.84406	-1512.98425							101.26465	508.97980	-1562.50671										
32	0.310																									229.34752	1140.72656	-1600.08142				190.27129	873.79639	-1440.97705				108.72593	1001.89374	-1512.82495							101.24648	508.95959	-1562.68994										
33	0.320																									229.35489	1140.73816	-1600.03455				190.28796	873.84558	-1440.91980				108.70484	1001.84210	-1513.03442							101.25553	508.91428	-1562.59363										
34	0.330																									229.36266	1140.74841	-1599.99341				190.31870	873.87592	-1440.73010				108.70378	1001.86462	-1513.04517							101.25060	508.94363	-1562.64661										
35	0.340																									229.37718	1140.75562	-1599.97351				190.30055	873.92444	-1440.68372				108.69643	1001.83936	-1513.11816							101.22848	508.89090	-1562.86731										
36	0.350																									229.38843	1140.76074	-1599.96045				190.34412	874.41559	-1441.35950				108.69135	1001.83893	-1513.16870							101.23446	508.89575	-1562.80676										
37	0.360																									229.39290	1140.76575	-1599.94067				190.36525	874.43347	-1441.24634				108.68568	1001.80811	-1513.22498							101.21613	508.84531	-1562.98901										
